<svg xmlns="http://www.w3.org/2000/svg" width="${width}" height="${height}" viewBox="0 0 120 120" class="clock-svg">
<path d="M0 60c0 33.137 26.863 60 60 60s60-26.863 60-60S93.137 0 60 0 0 26.863 0 60z" class="circle" fill="${circleColor}"></path>
  <g class="analog-clock__numbers analog-clock__numbers--minor" fill="${hourNumbersColor}">
 <svg xmlns="http://www.w3.org/2000/svg" xml:space="preserve" style="enable-background:new 0 0 1280 1280" viewBox="0 0 1280 1280"><g transform="matrix(.1 0 0 -.1 0 1280)"><path d="M6495.8 12193.3c-1.8 88.8-2.8 205.6-2.5 259.5l1.4 98.6-103.3.7-102.3.7 2.7-127.3c2.1-69.8 4.5-210 5.1-311.6l2.3-184.8 97.5.7 97.5.7 2.2 50.8c.8 27.8.2 123.2-.6 212zM9389.4 11389.6c42.2 78.3 98.8 180.5 125.7 227.2l49.7 85.2-89.6 51.2-88.8 50.7-60.3-112.2c-32.5-61.9-99.5-185.2-149.1-274l-89-162.1 85.2-47.1 85.2-47.1 26.9 43.2c14.5 23.7 61 107.1 104.1 185zM11490.2 9229.9c75.6 47.1 175.8 107.7 222.3 135l85.6 49.3-52.3 88.8-51.8 88-108.4-67.5c-59-37.5-178.7-111.5-265.9-164.1l-158-96.6 50.5-83.1 50.5-83.1 44.9 24.2c24.7 13.4 106.5 62.8 182.6 109.1zM12229.5 6306.7c89.1 1.9 206.3 3.1 260.3 2.8l98.9-1.3.6 102.9.6 102-127.7-2.9c-70.1-2.2-210.7-4.8-312.6-5.5l-185.4-2.5.8-97.2.8-97.2 51-2.1c27.8-.6 123.6 0 212.7 1zM11395.5 3397.5c78.1-42.9 180-100.4 226.6-127.7l84.9-50.5 52.3 88.8 51.8 87.9-111.9 61.4c-61.7 33.1-184.6 101.2-273.2 151.5l-161.7 90.4-48.3-84.5-48.3-84.5 43-27.3c24-14.5 107.2-61.7 184.8-105.5zM9226.1 1309.4c48.2-74.7 110.5-173.5 138.6-219.6l50.7-84.7 88.4 53.4 87.5 52.8-69.2 107c-38.5 58.3-114.2 176.4-168.3 262.6l-99.1 156.1-82.7-51.5-82.7-51.5 24.8-44.5c13.9-24 64.5-105 112-180.1zM6300 595.6c2.5-88.8 4.3-205.6 4.4-259.5l-.6-98.6h205.6l-3.7 127.3c-2.6 69.8-6.1 209.9-7.4 311.6l-3.7 184.8-97.5-1.3-97.5-1.3-1.8-50.8c-.6-27.9.6-123.3 2.2-212.2zM3413.6 1421.4c-44.9-76.8-105.1-176.9-133.5-222.8l-52.7-83.4 87.7-54.3 87-53.8 64.2 110.1c34.6 60.7 105.9 181.6 158.6 268.7l94.6 158.9-83.6 50.1-83.6 50.1-28.5-42.2c-15.1-23.3-64.5-105.1-110.2-181.4zM1318.2 3586.5c-74.4-48.9-173.1-112-218.9-140.5l-84.5-51.4 54.4-87.5 54-86.7 106.6 70.1c58.1 39.1 175.8 115.7 261.8 170.4l155.6 100.4-52.5 81.9-52.5 81.9-44.3-25.2c-24.2-13.9-104.9-65.3-179.7-113.4zM598.1 6495.2c-89.2-1-206.3-.9-260.3 0l-98.9 2.3-1.7-102.9-1.7-102 127.7 1.4c70.1 1.4 210.7 2.5 312.7 2.1l185.4.6.3 97.2.3 97.2-51 2.7c-27.8 1.1-123.7 1.4-212.8 1.4zM1427.1 9385c-78.6 41.9-181.2 98.3-228.2 125l-85.5 49.5-51.2-89.4-50.8-88.5 112.6-60c62.2-32.3 185.9-99 275.1-148.3l162.7-88.5 47.2 85 47.2 85-43.3 26.8c-23.9 14.3-107.7 60.6-185.8 103.4zM3583.5 11467.7c-45.8 76.3-104.8 177.1-131.3 224.1l-47.9 86.3-90.1-50.5-89.2-50 65.7-109.2c36.7-59.6 108.3-180.1 159.6-268.1l94.1-159.2 84.4 48.8 84.4 48.8-23.4 45.2c-13.3 24.4-61.2 106.9-106.3 183.8zM1544.9 9906.4c74.8-48.6 137-88.8 137.8-88.9.9-.1 4.6 4.9 8.2 11.2l6.5 11.8-102 66.4c-56.2 36.7-117.7 77.1-136.8 89.5-19 12.5-36 23.3-37.7 23.5-4.2.7-15.7-17.4-13.6-21.6 1-1.9 62.6-42.9 137.6-91.9zM1931.3 10384.3c67.8-57.9 124.2-105.8 125.1-106 .9-.2 5.2 4.2 9.6 10l7.9 10.9-92.5 79c-50.9 43.6-106.6 91.7-123.8 106.5-17.3 14.9-32.6 27.8-34.4 28.2-4.1 1.3-17.9-15.2-16.3-19.6.7-2 56.5-50.8 124.4-109zM2384.1 10839c61.4-64.7 112.3-118.2 113.2-118.5s5.6 3.7 10.5 8.9l9.1 10-83.6 88.3c-46 48.7-96.3 102.3-112 118.8-15.6 16.5-29.5 31.1-31.2 31.7-3.9 1.6-19.4-13.3-18.3-17.8.5-2.1 50.8-56.4 112.3-121.4zM2863.8 11229.4c54-70.9 98.8-129.7 99.7-130.1.8-.4 6 3.1 11.5 7.8l10 8.9-73.5 96.8c-40.4 53.4-84.6 112.1-98.4 130.3-13.7 18.2-26 34.1-27.6 34.8-3.7 2-20.7-11.1-20.2-15.7.4-2 44.5-61.5 98.5-132.8zM3943.2 11853.8c38.8-80.1 71.1-146.6 71.9-147.1.7-.5 6.5 1.8 12.7 5.3l11.7 6.7-52.9 109.4c-29.1 60.3-60.7 126.5-70.6 147-9.8 20.5-18.7 38.5-20.1 39.5-3.2 2.7-22.5-6.8-22.9-11.4 0-2 31.3-68.9 70.2-149.4zM4534.7 12086.2c31.2-83.4 57.1-152.6 57.8-153.2.7-.6 6.7 1.2 13.2 4.1l12.3 5.7-42.5 113.8c-23.4 62.7-48.6 131.6-56.6 153-7.8 21.4-15.1 40-16.3 41.3-2.9 3-23.1-4.7-23.8-9.2-.3-2.2 24.8-71.7 55.9-155.5zM5137.2 12250c20-86.8 36.8-158.6 37.4-159.3s6.8.4 13.6 2.4l12.8 4-27.2 118.3c-15 65.2-31.1 136.8-36.2 159-5 22.2-9.7 41.7-10.8 43-2.5 3.4-23.5-1.6-24.8-6.1-.5-2 15.3-74.2 35.2-161.3zM5767.9 12347.5c11.5-88.3 21.2-161.4 21.7-162.2.5-.7 6.8-.3 13.8 1.1l13.2 2.8-15.6 120.5c-8.5 66.4-17.7 139.2-20.6 161.7-2.8 22.5-5.6 42.4-6.6 43.9-2.1 3.6-23.5.6-25.3-3.7-.7-2.1 8-75.5 19.4-164.1zM7008.8 12357.1c-10-88.5-18.1-161.8-17.9-162.7.3-.8 6.5-1.9 13.7-2.3l13.5-.5 13.7 120.6c7.6 66.5 16.3 139.3 18.8 161.9 2.7 22.6 4.7 42.5 4.1 44.2-1.3 4-22.7 6.2-25.5 2.5-1.1-1.6-10.3-74.9-20.4-163.7zM7625.4 12263.8c-19.4-86.9-35.3-159-35.1-159.9s6.3-2.6 13.3-3.8l13.3-1.9 26.5 118.5c14.7 65.3 31.1 136.8 36.1 159 5 22.1 9.3 41.8 8.9 43.5-.8 4.1-21.9 8.6-25.1 5.2-1.3-1.5-18.3-73.5-37.9-160.6zM8241.4 12108.8c-26.8-85-48.8-155.4-48.6-156.2.2-.9 6-3.1 12.9-4.8l13.1-3 36.6 115.8c20.3 63.8 42.7 133.6 49.5 155.4 6.9 21.6 12.8 40.8 12.5 42.6-.5 4.1-21 10.4-24.5 7.3-1.4-1.6-24.5-71.9-51.5-157.1zM8825.6 11886.3c-36.1-81.5-65.8-149-65.7-149.9s5.6-3.8 12.4-6.3l12.7-4.4 49.2 111c27.2 61.2 57.3 128.1 66.5 148.9 9.3 20.8 17.3 39.2 17.2 40.9 0 4.1-19.8 12.7-23.5 9.9-1.7-1.2-32.5-68.5-68.8-150.1zM9928.2 11252.7c-52.3-72.2-95.5-132.1-95.7-133-.1-.9 4.7-4.8 10.8-8.7l11.5-7 71.4 98.3c39.5 54.2 82.9 113.4 96.2 131.8 13.4 18.4 25.1 34.7 25.4 36.5.9 4-16.7 16.5-20.9 14.6-1.9-.8-46-60.1-98.7-132.5zM10412.6 10864.4c-59.2-66.8-108-122.2-108.2-123.1-.2-.9 4.2-5.3 9.8-9.7l10.8-8.1 80.7 91c44.5 50.1 93.5 104.9 108.7 121.9 15.2 16.9 28.4 32.1 28.9 33.9 1.3 3.9-15.1 18-19.4 16.5-2.2-.7-51.9-55.5-111.3-122.4zM10853.2 10429.8c-66.2-59.7-121-109.4-121.3-110.3-.3-.9 3.6-5.7 8.8-10.7l9.8-9.2 90.3 81.4c49.9 44.8 104.7 93.8 121.6 109 17 15.2 31.8 28.8 32.4 30.4 1.7 3.8-12.9 19.6-17.5 18.7-2-.5-57.5-49.5-124.1-109.3zM11257.5 9939c-71.2-53.7-130.2-98.3-130.6-99.2-.4-.9 3.1-6 7.7-11.4l9-10 97.2 73.2c53.7 40.3 112.5 84.2 130.8 97.9 18.2 13.7 34.2 25.9 34.9 27.4 2 3.7-11.1 20.7-15.7 20.1-2-.4-61.7-44.3-133.3-98zM11889.9 8849.7c-80.8-37.9-147.8-69.5-148.3-70.1-.5-.7 1.7-6.4 5.2-12.8l6.7-11.6 110.2 51.6c60.8 28.4 127.6 59.3 148.2 68.9 20.7 9.6 38.8 18.3 39.9 19.6 2.8 3.2-6.6 22.5-11.2 22.9-2.1.1-69.6-30.6-150.7-68.5zM12116.9 8282.8c-84-30.4-153.6-55.7-154.1-56.4-.6-.7 1.2-6.6 4.1-13.2l5.6-12.2 114.5 41.4c63.1 22.7 132.4 47.4 153.9 55.1 21.4 7.7 40.3 14.6 41.5 16 3.1 2.9-4.5 23-9.1 23.9-2.2.2-72.2-24.2-156.4-54.6zM12278.7 7675.9c-87.2-19.5-159.3-35.9-160-36.5s.3-6.7 2.3-13.7l4-12.8 118.8 26.6c65.5 14.5 137.4 30.3 159.7 35.2 22.3 4.9 41.9 9.4 43.2 10.6 3.4 2.5-1.5 23.4-6 24.8-1.9.6-74.5-14.8-162-34.2zM12388.7 7063c-88.7-10.6-162.2-19.5-162.9-20s-.4-6.7.9-13.8l2.6-13.2 120.9 14.3c66.7 7.8 139.8 16.2 162.4 18.9 22.7 2.6 42.6 5.2 44.1 6.2 3.7 2.1.9 23.4-3.4 25.3-1.9.6-75.7-7.3-164.6-17.7zM12390.1 5765.5c-89 7.9-162.7 14.1-163.6 13.9-.8-.4-1.7-6.4-1.9-13.7l-.1-13.5 121.3-10.8c66.9-6 140.1-12.9 162.9-14.9 22.7-2.1 42.8-3.7 44.4-3.1 4 1.3 5.7 22.7 1.8 25.4-1.7 1.3-75.5 8.7-164.8 16.7zM12295.2 5165.4c-87.4 17.9-160 32.6-160.9 32.4s-2.5-6.3-3.5-13.4l-1.6-13.4 119.3-24.5c65.7-13.6 137.7-28.8 160.1-33.4 22.3-4.7 42.1-8.6 43.7-8.1 4.2.9 8.2 21.9 4.8 25-1.6 1.5-74.1 17.2-161.9 35.4zM12131.9 4552.7c-85.3 26.4-156.1 48-156.9 47.9-.9-.2-3.1-6-4.8-13l-3-13.1 116.3-36c64.1-19.9 134.3-42 156.1-48.8 21.7-6.8 41-12.6 42.8-12.3 4.1.5 10.3 21.1 7.2 24.4-1.6 1.5-72.2 24.2-157.7 50.9zM11913.4 3980.6c-82.5 34.2-150.9 62.3-151.8 62.2-.9-.1-3.7-5.7-6-12.4l-4.1-12.8 112.4-46.7c62-25.8 129.8-54.3 150.9-63 21-8.9 39.7-16.4 41.4-16.3 4.1.1 12.3 20 9.5 23.7-1.4 1.7-69.6 30.9-152.3 65.3zM11277.6 2882.5c-73.6 50.4-134.8 92-135.7 92.1s-4.7-4.8-8.4-11l-6.8-11.6 100.4-68.8c55.3-38 115.7-79.8 134.5-92.6 18.7-13 35.4-24.1 37.2-24.4 4.2-.8 16.1 17 14.2 21.3-1 1.8-61.6 44.4-135.4 95zM10882.9 2393.9c-66.2 59.7-121.3 109.1-122.2 109.3s-5.3-4.1-9.8-9.7l-8.2-10.7 90.3-81.5c49.7-44.9 104-94.5 120.9-109.8s31.8-28.7 33.6-29.2c4-1.3 18.2 14.7 16.9 19.1-.7 2.3-55.1 52.5-121.5 112.5zM10433.8 1942.1c-61 65-111.7 118.8-112.5 119.1-.9.3-5.7-3.7-10.6-8.9l-9.1-9.9 83.1-88.7c45.7-49 95.7-102.8 111.3-119.5 15.5-16.6 29.3-31.2 31-31.8 3.9-1.6 19.4 13.2 18.4 17.7-.5 2-50.5 56.6-111.6 122zM9951.6 1548.6c-53 71.7-97.1 131-97.9 131.3-.8.3-6-3-11.6-7.7l-10.1-8.9 72.2-97.7c39.8-54 83.1-113.2 96.6-131.5 13.4-18.4 25.5-34.3 27.1-35.2 3.7-2.1 20.8 11 20.3 15.6-.3 2-43.5 62-96.6 134.1zM8855.3 920.9c-37.8 80.6-69.4 147.4-70.2 148-.7.5-6.5-1.8-12.8-5.3l-11.7-6.7 51.6-110c28.4-60.6 59.3-127.3 68.9-147.9 9.6-20.6 18.2-38.7 19.7-39.8 3.2-2.8 22.6 6.6 23 11.4-.1 2-30.7 69.3-68.5 150.3zM8276.1 699c-30.3 83.7-55.7 153.1-56.4 153.6-.7.6-6.7-1.2-13.2-4l-12.3-5.6 41.3-114.2c22.7-63 47.4-132.1 55.1-153.5 7.6-21.5 14.7-40.2 15.9-41.5 2.9-3 23.1 4.6 23.9 9.1.4 2.3-24 72-54.3 156.1zM7670.7 536.7c-19.8 86.8-36.3 158.7-36.9 159.4s-6.8-.4-13.7-2.4l-12.8-4 26.9-118.4c14.8-65.3 30.7-136.9 35.7-159.1 4.9-22.2 9.6-41.7 10.7-43.1 2.5-3.4 23.5 1.7 24.9 6.2.5 2-15.1 74.2-34.8 161.4zM7043.8 438.4c-11.3 88.3-20.9 161.5-21.4 162.2s-6.8.3-13.8-1.1l-13.2-2.8 15.3-120.5c8.4-66.4 17.4-139.2 20.3-161.8 2.8-22.6 5.5-42.4 6.5-43.9 2.1-3.6 23.5-.5 25.4 3.8.6 1.9-7.9 75.3-19.1 164.1zM5796.1 434.9c8.5 88.6 15.3 162.1 15.1 163-.3.9-6.6 1.7-13.7 1.9l-13.5.2-11.7-120.8c-6.5-66.6-13.9-139.6-16.1-162.2-2.3-22.6-4.1-42.6-3.4-44.3 1.3-3.9 22.9-5.7 25.6-1.9 1.1 1.7 9.1 75.2 17.7 164.1zM5175.5 532.4c16.9 87.5 30.8 159.9 30.5 160.8s-6.3 2.4-13.5 3.3l-13.4 1.4-23.2-119.2c-12.8-65.7-27.1-137.7-31.5-160s-8-42-7.6-43.7c.9-4 22.2-7.8 25.3-4.3 1.4 1.5 16.4 73.9 33.4 161.7zM4559.1 696c25.7 85.2 46.8 156 46.6 156.9-.2.9-6.1 3-13.1 4.6l-13.2 2.8-35-116.3c-19.4-64.1-40.9-134.2-47.5-156-6.7-21.7-12.3-41-12-42.7.5-4.1 21.3-10 24.7-6.8 1.5 1.3 23.6 71.9 49.5 157.5zM3977 917.7c34.9 82 63.7 150 63.6 150.9s-5.7 3.7-12.5 6l-12.8 4.2-47.7-111.7c-26.3-61.6-55.5-128.9-64.5-149.8-9-20.9-16.7-39.3-16.6-41.2 0-4.1 20.1-12.3 23.7-9.5 1.9 1.2 31.6 68.9 66.8 151.1zM2892.8 1540.9c51.2 72.9 93.4 133.6 93.5 134.5s-4.8 4.7-11 8.5l-11.7 6.7-69.8-99.5c-38.5-54.7-81-114.7-94.1-133.3-13.1-18.6-24.5-35.1-24.8-36.8-.9-4.1 17.1-16.2 21.3-14.2 1.9.8 45.1 60.9 96.6 134.1zM2405.6 1932.1c59.3 66.6 108.3 121.9 108.6 122.8.2.9-4.2 5.3-9.9 9.6l-10.8 8.1-80.9-90.7c-44.7-49.9-93.8-104.6-109-121.6-15.2-16.9-28.5-32-28.9-33.8-1.3-3.9 15.1-18 19.5-16.5 1.9.6 51.7 55.4 111.4 122.1zM1972.4 2360.9c64.9 61.2 118.5 112.1 118.8 112.9.3.9-3.8 5.6-9.1 10.5l-10 8.9-88.5-83.4c-48.8-45.9-102.6-96-119.2-111.7-16.6-15.6-31.1-29.4-31.8-31.1-1.6-3.8 13.4-19.2 18-18.2 2.2.7 56.6 50.8 121.8 112.1zM1556.7 2866.8c71.7 53.1 131.1 97.2 131.5 98 .4.9-3.1 6-7.7 11.4l-9 10.1-97.9-72.3c-54-39.8-113.3-83.2-131.6-96.8-18.3-13.5-34.4-25.6-35.2-27.1-2.1-3.7 11.1-20.7 15.7-20.2 2.1.4 62.2 43.8 134.2 96.9zM929.3 3942c80.9 37.7 147.9 69.2 148.4 69.8.5.7-1.8 6.4-5.3 12.8l-6.8 11.6-110.3-51.4c-60.9-28.3-127.7-59-148.3-68.6-20.8-9.5-38.8-18.2-40-19.5-2.8-3.2 6.7-22.5 11.3-22.9 2.1-.1 69.7 30.5 151 68.2zM696.4 4543.9c84.7 28.2 154.9 51.8 155.5 52.3.6.7-1.1 6.6-3.8 13.3l-5.3 12.4-115.5-38.3c-63.7-21.1-133.7-44-155.3-51.1s-40.6-13.7-41.9-14.8c-3.1-2.8 4.1-23.1 8.6-24.1 2-.4 72.6 22.2 157.7 50.3zM538.4 5129.5c87.2 19.5 159.3 35.9 160 36.5s-.4 6.7-2.4 13.7l-4.1 12.8-118.9-26.6c-65.5-14.5-137.4-30.3-159.6-35.2-22.3-4.9-41.9-9.4-43.2-10.6-3.4-2.5 1.7-23.4 6.2-24.8 2-.5 74.4 14.8 162 34.2zM438.6 5751.6c88.7 10.6 162.1 19.6 162.9 20.1.7.5.3 6.7-1 13.8l-2.7 13.2-120.9-14.4c-66.7-7.9-139.8-16.3-162.4-19-22.7-2.6-42.6-5.2-44.1-6.2-3.6-2.1-.7-23.5 3.6-25.3 1.9-.6 75.6 7.3 164.6 17.8zM437.5 7009.9c88.8-9.4 162.4-17 163.3-16.7.8.3 1.8 6.4 2.1 13.7l.3 13.5-121.1 12.9c-66.8 7.2-139.8 15.4-162.5 17.8-22.7 2.5-42.7 4.4-44.3 3.8-4-1.3-5.9-22.7-2.2-25.5 1.7-1.2 75.4-9.9 164.4-19.5zM527.6 7617.8c87.4-18.3 159.9-33.2 160.8-33 .9.3 2.5 6.3 3.5 13.4l1.6 13.4-119.2 24.9c-65.7 13.9-137.6 29.2-159.9 34s-42 8.7-43.7 8.3c-4.1-.9-8.2-22-4.7-25.1 1.5-1.4 73.9-17.4 161.6-35.9zM697.5 8228.1c85.2-26.6 156-48.6 156.8-48.4.9.2 3.1 6 4.7 13l2.9 13.2-116.1 36.3c-64 20.1-134.2 42.4-155.9 49.3-21.7 6.9-40.9 12.7-42.8 12.4-4.2-.5-10.3-21.1-7.1-24.5 1.6-1.5 72-24.4 157.5-51.3zM912.5 8809.8c82.1-34.8 150.4-63.6 151.2-63.5s3.7 5.7 6 12.5l4.2 12.8-112.1 47.6c-61.8 26.3-129.3 55.4-150.3 64.3-20.9 8.9-39.5 16.6-41.3 16.5-4.2 0-12.4-20-9.6-23.7 1.6-1.8 69.5-31.5 151.9-66.5z"/><ellipse cx="6412.7" cy="6395.1" class="st0" rx="6177.2" ry="-6157.6"/></g></svg>
  </g>
  <g class="analog-clock__hands">
  <path id="hour-hand" d="M60 60V28" class="analog-clock__hand" data-analogclock-type="hour" style="transform: rotate(192.867deg) translateZ(0px);" stroke-width="3" stroke="${hourMinuteHandColor}"></path>
  <path id="minute-hand" d="M60 60V7" class="analog-clock__hand" data-analogclock-type="minute" style="transform: rotate(154.4deg) translateZ(0px);" stroke-width="2" stroke="${hourMinuteHandColor}"></path>
  <path id="second-hand" d="M60 60V3" class="analog-clock__hand" data-analogclock-type="seconds" style="transform: rotate(264deg) translateZ(0px);" stroke-width="1" stroke="${secondHandColor}"></path>
  <path d="M63 60a3 3 0 11-6 0 3 3 0 016 0z" class="analog-clock__pin" fill="${pinColor}"></path>
  <circle cx="60" cy="60" r="2" class="analog-clock__pin-inner" fill="${pinInnerColor}"></circle>
    </g>
    </svg>